<?xml version="1.0" encoding="UTF-8" standalone="no"?>
<!DOCTYPE svg PUBLIC "-//W3C//DTD SVG 1.1//EN" "http://www.w3.org/Graphics/SVG/1.1/DTD/svg11.dtd">
<svg width="100%" height="100%" viewBox="0 0 92 92" version="1.1" xmlns="http://www.w3.org/2000/svg" xmlns:xlink="http://www.w3.org/1999/xlink" xml:space="preserve" xmlns:serif="http://www.serif.com/" style="fill-rule:evenodd;clip-rule:evenodd;stroke-linejoin:round;stroke-miterlimit:2;">
    <g transform="matrix(1,0,0,1,-33,-136)">
        <rect id="favicon" x="33" y="136" width="92" height="92" style="fill:none;"/>
        <g id="favicon1" serif:id="favicon">
            <g transform="matrix(1.307909,0,0,1.307909,-24.324807,-56.039429)">
                <g transform="matrix(4.166667,0,0,4.166667,-38.714437,124.651667)">
                    <g transform="matrix(0.24,0,0,0.24,0,0)">
                        <path d="M144.692,67.275L139.896,69.663L140.409,74.996C140.642,77.48 138.605,79.588 136.113,79.434L130.767,79.105L128.542,83.975C127.505,86.246 124.684,87.055 122.605,85.675L118.138,82.717L113.78,85.825C111.746,87.271 108.896,86.559 107.784,84.325L105.396,79.534L100.067,80.042C97.584,80.28 95.475,78.238 95.625,75.746L95.955,70.4L91.084,68.18C88.813,67.142 88.009,64.321 89.388,62.238L92.342,57.775L89.238,53.413C87.792,51.38 88.505,48.534 90.738,47.421L95.53,45.034L95.021,39.7C94.784,37.217 96.821,35.109 99.313,35.263L104.659,35.592L106.884,30.721C107.921,28.45 110.742,27.642 112.825,29.021L117.288,31.98L121.65,28.871C123.684,27.425 126.53,28.138 127.642,30.371L130.03,35.167L135.359,34.655C137.846,34.417 139.955,36.459 139.8,38.95L139.471,44.296L144.342,46.517C146.613,47.555 147.421,50.375 146.042,52.459L143.084,56.921L146.188,61.284C147.638,63.317 146.925,66.163 144.692,67.275Z" style="fill:rgb(151,0,35);"/>
                    </g>
                    <g transform="matrix(1,0,0,1,25.3425,14.1902)">
                        <path d="M0,-2.416C-0.108,-2.443 -0.22,-2.435 -0.329,-2.397C-0.373,-2.382 -0.413,-2.343 -0.455,-2.319C-0.519,-2.282 -0.585,-2.256 -0.643,-2.201C-0.84,-2.018 -1.003,-1.738 -1.087,-1.404C-1.253,-0.737 -1.038,-0.109 -0.604,-0C-0.495,0.027 -0.384,0.019 -0.275,-0.019C-0.231,-0.034 -0.191,-0.073 -0.149,-0.098C-0.085,-0.134 -0.02,-0.161 0.039,-0.215C0.236,-0.398 0.399,-0.678 0.483,-1.012C0.649,-1.679 0.433,-2.308 0,-2.416" style="fill:white;fill-rule:nonzero;"/>
                    </g>
                    <g transform="matrix(1,0,0,1,28.2977,14.909)">
                        <path d="M0,-2.396C-0.189,-2.443 -0.386,-2.368 -0.564,-2.23C-0.794,-2.052 -0.993,-1.76 -1.086,-1.384C-1.253,-0.717 -1.038,-0.089 -0.604,0.02C-0.495,0.047 -0.384,0.039 -0.275,0.001C0.053,-0.112 0.358,-0.492 0.483,-0.992C0.649,-1.659 0.433,-2.288 0,-2.396" style="fill:white;fill-rule:nonzero;"/>
                    </g>
                </g>
            </g>
        </g>
    </g>
</svg>
