<?xml version="1.0" encoding="UTF-8" standalone="no"?>
<!DOCTYPE svg PUBLIC "-//W3C//DTD SVG 1.1//EN" "http://www.w3.org/Graphics/SVG/1.1/DTD/svg11.dtd">
<svg width="100%" height="100%" viewBox="0 0 2324 929" version="1.1" xmlns="http://www.w3.org/2000/svg" xmlns:xlink="http://www.w3.org/1999/xlink" xml:space="preserve" xmlns:serif="http://www.serif.com/" style="fill-rule:evenodd;clip-rule:evenodd;stroke-linejoin:round;stroke-miterlimit:2;">
    <g transform="matrix(1,0,0,1,-2656,0)">
        <g id="Header-logo" transform="matrix(0.997853,0,0,1.04148,96.286656,0)">
            <rect x="2565.22" y="0" width="2329" height="892" style="fill:none;"/>
            <g transform="matrix(1.002151,0,0,1.089683,2473.603563,-1636.309777)">
                <path d="M857.875,2095.391C831.729,2117.365 801.325,2136.359 769.514,2151.785C771.501,2158.397 770.893,2165.645 767.199,2172.258C767.199,2172.258 755.995,2191.833 736.704,2213.964C731.517,2219.915 725.745,2226.052 719.448,2232.042C730.855,2238.74 743.527,2247.397 756.947,2258.563L837.292,2258.563C855.689,2258.563 870.625,2271.724 870.625,2287.935C870.625,2304.145 855.689,2317.306 837.292,2317.306L743.292,2317.306C734.295,2317.306 725.68,2314.102 719.405,2308.421C681.331,2273.951 651.817,2267.403 651.817,2267.403C638.078,2265.005 627.505,2255.296 625.354,2243.102C625.15,2241.945 625.026,2240.79 624.979,2239.641C624.529,2228.672 631.096,2218.263 642.198,2212.869C656.179,2206.077 668.401,2195.808 678.367,2185.356C598.263,2205.901 526.178,2200.517 507.099,2159.927C389.496,2197.7 317.911,2205.466 285.115,2150.39C187.056,2180.833 108.607,2195.238 91.43,2158.406C269.871,2090.902 377.618,1987.68 433.206,1931.31C504.317,1859.198 579.913,1821.441 656.43,1805.066C655.397,1752.924 693.537,1682.82 763.722,1675.965C775.413,1674.824 787.994,1675.437 801.43,1678.18C805.716,1679.055 809.768,1680.045 813.599,1681.137C857.066,1693.523 871.983,1719.032 876.173,1739.276C879.348,1739.449 882.572,1740.096 885.783,1741.263C898.231,1745.786 902.665,1753.838 903.81,1761.25C904.653,1766.716 903.709,1771.833 902.87,1774.931C902.356,1776.826 901.883,1777.965 901.883,1777.965L897.003,1788.607C903.423,1797.862 909.036,1808.551 909.761,1818.325C910.134,1823.36 909.21,1828.152 906.43,1832.381C906.43,1832.381 900.815,1827.329 892.459,1821.073C881.79,1813.084 866.652,1803.131 853.025,1799.223C865.238,1806.977 876.04,1814.648 885.53,1822.342C938.818,1865.542 950.711,1909.429 938.43,1972.484C929.32,2019.257 898.819,2060.979 857.875,2095.391ZM766.324,1745.048C764.186,1751.968 763,1759.599 763,1767.617C763,1798.984 781.147,1824.451 803.5,1824.451L803.599,1824.451C808.356,1824.435 812.921,1823.266 817.159,1821.132C826.408,1816.477 834.104,1807.231 838.85,1795.356C839.912,1792.699 840.826,1789.91 841.577,1787.012C843.145,1780.958 844,1774.427 844,1767.617C844,1740.127 830.062,1717.169 811.57,1711.913C808.962,1711.172 806.263,1710.783 803.5,1710.783C786.861,1710.783 772.551,1724.895 766.324,1745.048ZM1022.619,1702.257C1022.817,1698.003 1024.293,1693.76 1027.105,1689.996L1027.1,1689.992C1034.074,1680.657 1041.347,1666.272 1045,1644.697C1049.596,1617.553 1054.081,1580.764 1076.103,1553.479C1002.12,1544.273 922.637,1549.807 862,1602.402C848.047,1614.504 837.597,1626.98 829.929,1639.47C824.506,1637.907 818.775,1636.497 812.717,1635.26C800.875,1632.842 789.466,1631.578 778.513,1631.34C788.738,1611.08 804.261,1590.661 826.924,1571.004C889.925,1516.359 969.136,1502.091 1047.124,1506.551C1078.023,1508.319 1108.623,1513.102 1137.399,1518.972C1147.387,1517.077 1158.537,1516.049 1171,1516.049C1200.2,1516.049 1220.887,1527.037 1235.538,1542.816C1341.899,1572.384 1456.514,1683.364 1397.664,1799.276C1431.404,1795.245 1473.178,1793.496 1521,1798.016C1521,1798.016 1550.081,1724.431 1506.405,1689.079C1482.106,1696.049 1453,1722.238 1453,1722.238C1444.824,1709.8 1452.7,1692.487 1462.427,1678.463L1457.547,1667.822C1457.547,1667.822 1446.403,1641.018 1473.647,1631.12C1476.858,1629.953 1480.082,1629.306 1483.257,1629.133C1487.816,1607.105 1505.076,1578.843 1558,1568.037C1652.1,1548.823 1683.205,1617.354 1694,1659.676C1702.726,1693.888 1705.868,1739.308 1730.644,1789.73C1747.093,1794.08 1835.743,1814.69 1867,1762.861C1867,1762.861 1885.429,1724 1955,1724L2414,1724C2414,1724 2396.889,1847.284 2102,1873C2102,1873 2262.375,1922.808 1986,1964C1986,1964 2022.019,2000.352 1881.882,1998.222C1876.411,1961.408 1857.555,1907.321 1795.933,1880.174C1791.383,1878.17 1787.243,1876.569 1783.485,1875.34C1812.9,1925.69 1832.696,1981.56 1802,2047.381C1792.311,2068.159 1779.462,2087.554 1763.32,2104.933C1766.876,2116.101 1774.221,2142.288 1775.398,2171.28C1785.736,2169.481 1797.53,2168.037 1810.813,2167.273C1819.746,2144.707 1835.682,2126.304 1859.869,2112.835C1875.421,2104.174 1896.026,2108.269 1905.855,2121.972C1915.683,2135.675 1911.036,2153.832 1895.485,2162.492C1880.106,2171.056 1872.747,2184.354 1870.005,2200.445C1867.525,2214.998 1853.205,2225.688 1836.506,2225.451C1781.924,2224.679 1755.76,2238.379 1755.76,2238.379C1744.102,2245.218 1728.835,2244.906 1717.549,2237.599C1706.263,2230.291 1701.365,2217.546 1705.29,2205.699C1711.419,2187.198 1709.985,2166.124 1706.862,2149.273C1673.584,2168.162 1632.924,2181.375 1584.457,2186.904C1576.288,2198.692 1563.126,2215.897 1546.156,2232.042C1557.563,2238.74 1570.235,2247.397 1583.654,2258.563L1664,2258.563C1682.397,2258.563 1697.333,2271.724 1697.333,2287.935C1697.333,2304.145 1682.397,2317.306 1664,2317.306L1570,2317.306C1561.003,2317.306 1552.388,2314.102 1546.113,2308.421C1508.039,2273.951 1478.525,2267.403 1478.525,2267.403C1464.786,2265.005 1454.213,2255.296 1452.062,2243.102C1449.911,2230.907 1456.641,2218.828 1468.906,2212.869C1481.273,2206.861 1492.264,2198.132 1501.535,2188.963C1498.382,2188.791 1495.203,2188.591 1492,2188.365C1423.431,2183.517 1371.934,2159.883 1334.964,2133.542C1338.579,2130.778 1342.088,2127.957 1345.506,2125.085C1396.853,2081.94 1483.507,1966.023 1388.223,1815.321C1379.245,1827.51 1365.51,1836.481 1349.503,1840.461C1348.729,1840.653 1347.952,1840.834 1347.172,1841.001C1421.756,1963.607 1352.997,2057.913 1311,2093.201C1307.037,2096.531 1302.926,2099.765 1298.638,2102.893C1274.173,2120.745 1243.976,2135.161 1202.919,2144.403C1203.559,2153.81 1204.755,2197.664 1174.942,2229.729C1180.501,2237.282 1186.945,2246.783 1194.071,2258.563L1267.669,2258.563C1286.066,2258.563 1301.002,2271.724 1301.002,2287.935C1301.002,2304.145 1286.066,2317.306 1267.669,2317.306L1173.669,2317.306C1171.664,2317.306 1169.686,2317.148 1167.756,2316.841C1165.829,2317.147 1163.846,2317.306 1161.821,2317.306L1067.821,2317.306C1055.099,2317.306 1043.486,2310.925 1037.888,2300.858C1015.177,2260.016 1000.449,2246.316 1000.449,2246.316C992.943,2239.812 989.365,2230.565 990.798,2221.375C992.231,2212.185 998.507,2204.131 1007.727,2199.652C1021.626,2192.899 1026.701,2180.876 1029.063,2170.993C1031.128,2162.35 1031.051,2154.801 1030.868,2151.431C986.297,2144.462 941.908,2130.088 905.435,2115.773C947.55,2076.908 977.82,2030.712 987.709,1979.936C996.803,1933.248 994.021,1895.002 977.603,1860.286C972.728,1849.979 966.608,1839.918 959.058,1830.021C959.892,1824.477 959.99,1818.76 959.362,1812.944C958.652,1806.368 957.013,1799.666 954.462,1792.948C951.556,1785.296 947.298,1777.614 942.604,1770.449C965.762,1768.362 990.198,1766.981 1015.083,1766.242L1015.083,1728.919C1015.083,1722 1016.511,1715.249 1019.193,1708.952C1020.171,1706.655 1021.316,1704.419 1022.619,1702.257ZM1175.548,1661.419C1176.068,1661.758 1176.727,1661.886 1177.36,1661.772C1198.655,1657.944 1240.874,1677.225 1239,1666.725C1235.985,1649.832 1226.682,1636.065 1208.641,1628.266C1201.723,1625.274 1194.65,1626.796 1187,1633.242C1177.092,1641.59 1174.119,1653.119 1174.635,1659.995C1174.696,1660.562 1175.028,1661.08 1175.548,1661.419ZM1086.121,1809.688C1086.628,1809.543 1087.13,1809.375 1087.624,1809.185L1178.816,1773.973L1272.684,1810.218C1277.067,1811.91 1282.124,1811.54 1286.129,1809.233C1290.135,1806.926 1292.55,1802.993 1292.55,1798.777L1292.55,1732.607C1292.55,1727.478 1289.612,1722.694 1284.739,1719.888C1283.35,1719.087 1281.857,1718.479 1280.308,1718.065C1276.425,1717.028 1272.195,1717.218 1268.383,1718.689L1178.816,1753.273L1085.416,1717.209C1080.929,1715.477 1075.754,1715.856 1071.654,1718.217C1067.554,1720.579 1065.083,1724.603 1065.083,1728.919L1065.083,1796.203C1065.083,1800.988 1067.822,1805.449 1072.368,1808.067C1073.41,1808.667 1074.515,1809.152 1075.66,1809.52C1079.152,1809.564 1082.639,1809.62 1086.121,1809.688ZM1264.92,1602.512C1270.129,1624.168 1270.917,1643.383 1271,1650.865C1271.064,1656.601 1270.598,1663.667 1271.501,1673.449C1285.644,1672.744 1299.896,1675.983 1312.094,1683.009C1331.096,1693.952 1342.55,1712.605 1342.55,1732.607L1342.55,1795.005C1344.413,1793.655 1345.975,1791.98 1347.129,1790.063C1393.639,1712.811 1335.045,1639.076 1264.92,1602.512ZM1136.796,2153.863C1124.372,2154.8 1111.203,2155.4 1097.222,2155.642C1096.648,2173.171 1092.119,2204.966 1069.094,2229.729C1074.653,2237.282 1081.097,2246.783 1088.223,2258.563L1116.723,2258.563C1110.063,2249.819 1106.298,2246.316 1106.298,2246.316C1098.791,2239.812 1095.213,2230.565 1096.646,2221.375C1098.079,2212.185 1104.355,2204.131 1113.575,2199.652C1127.474,2192.899 1132.549,2180.876 1134.911,2170.993C1136.573,2164.039 1136.848,2157.794 1136.796,2153.863Z" style="fill:rgb(151,0,35);"/>
            </g>
        </g>
    </g>
</svg>
