<?xml version="1.0" encoding="UTF-8" standalone="no"?>
<!DOCTYPE svg PUBLIC "-//W3C//DTD SVG 1.1//EN" "http://www.w3.org/Graphics/SVG/1.1/DTD/svg11.dtd">
<svg width="100%" height="100%" viewBox="0 0 2329 892" version="1.1" xmlns="http://www.w3.org/2000/svg" xmlns:xlink="http://www.w3.org/1999/xlink" xml:space="preserve" xmlns:serif="http://www.serif.com/" style="fill-rule:evenodd;clip-rule:evenodd;stroke-linejoin:round;stroke-miterlimit:2;">
    <g transform="matrix(1,0,0,1,0,-9)">
        <g id="large-logo" transform="matrix(0.887238,0,0,0.826691,-178.334857,-3904.556997)">
            <rect x="201" y="4734" width="2625" height="1079" style="fill:none;"/>
            <g transform="matrix(1.127093,0,0,1.372801,101.506057,2657.024542)">
                <path d="M1814.301,1995.022C1814.201,1995.015 1814.1,1995.007 1814,1995C1595.462,1979.031 1728,1789 1728,1789C1728,1789 1832.486,1820.089 1867,1762.861C1867,1762.861 1885.429,1724 1955,1724L2414,1724C2414,1724 2396.889,1847.284 2102,1873C2102,1873 2262.375,1922.808 1986,1964C1986,1964 2028.249,2006.64 1843.205,1996.852C1840.266,1966.1 1828.243,1908.988 1780.287,1880.574C1712.726,1840.545 1780.676,1969.548 1780.676,1969.548L1814.301,1995.022Z" style="fill:rgb(52,52,52);"/>
            </g>
            <g transform="matrix(1.127093,0,0,1.372801,101.506057,2657.024542)">
                <path d="M1814.26,1995.461L1813.959,1995.439C1748.153,1990.631 1714.087,1970.053 1698.604,1943.664C1684.153,1919.033 1685.891,1889.3 1693.205,1862.487C1704.153,1822.349 1727.574,1788.769 1727.574,1788.769C1727.696,1788.594 1727.939,1788.517 1728.16,1788.583C1728.16,1788.583 1765.669,1799.744 1803.111,1796.346C1827.978,1794.089 1852.828,1785.405 1866.547,1762.674C1866.988,1761.762 1885.875,1723.559 1955,1723.559L2414,1723.559C2414.143,1723.559 2414.279,1723.614 2414.374,1723.708C2414.469,1723.802 2414.514,1723.928 2414.496,1724.053C2414.496,1724.053 2397.521,1847.083 2104.183,1873.25C2109.745,1875.148 2125.626,1880.99 2136.817,1889.303C2146.147,1896.234 2152.188,1904.883 2146.671,1914.374C2143.036,1920.627 2134.312,1927.286 2117.987,1934.059C2093.793,1944.098 2052.822,1954.452 1986.911,1964.311C1988.229,1965.89 1991.46,1970.398 1990.463,1975.667C1989.931,1978.479 1988.203,1981.515 1984.318,1984.432C1979.25,1988.237 1970.457,1991.86 1955.753,1994.504C1933.85,1998.442 1898.752,2000.232 1843.175,1997.292C1842.927,1997.279 1842.727,1997.107 1842.706,1996.889C1839.776,1966.227 1827.823,1909.27 1780.008,1880.94C1773.316,1876.975 1767.97,1874.678 1763.761,1873.766C1759.71,1872.889 1756.752,1873.303 1754.703,1874.796C1753.06,1875.993 1752.013,1877.867 1751.431,1880.256C1750.526,1883.966 1750.748,1888.895 1751.732,1894.534C1756.576,1922.283 1779.918,1967.052 1781.084,1969.276L1814.627,1994.688C1814.791,1994.812 1814.846,1995.016 1814.762,1995.192C1814.678,1995.368 1814.475,1995.477 1814.26,1995.461ZM1812.803,1994.468L1780.35,1969.882C1780.296,1969.841 1780.252,1969.79 1780.222,1969.733C1780.222,1969.733 1763.89,1938.725 1755.188,1911.811C1751.441,1900.224 1749.116,1889.39 1750.08,1882.089C1750.652,1877.762 1752.39,1874.654 1755.566,1873.256C1757.475,1872.416 1759.919,1872.186 1762.979,1872.712C1767.415,1873.475 1773.195,1875.841 1780.566,1880.209C1828.467,1908.589 1840.655,1965.504 1843.666,1996.435C1898.865,1999.336 1933.757,1997.56 1955.553,1993.641C1970.02,1991.04 1978.683,1987.505 1983.67,1983.761C1987.326,1981.016 1988.976,1978.17 1989.477,1975.522C1990.645,1969.349 1985.623,1964.29 1985.623,1964.29C1985.504,1964.17 1985.468,1964.002 1985.529,1963.852C1985.59,1963.702 1985.738,1963.592 1985.917,1963.566C2052.18,1953.689 2093.314,1943.323 2117.561,1933.262C2133.598,1926.608 2142.211,1920.115 2145.781,1913.972C2151.072,1904.87 2145.121,1896.624 2136.172,1889.976C2122.525,1879.839 2101.834,1873.416 2101.834,1873.416C2101.613,1873.347 2101.476,1873.152 2101.504,1872.947C2101.532,1872.742 2101.718,1872.582 2101.951,1872.562C2385.446,1847.839 2411.854,1732.913 2413.42,1724.441L1955,1724.441C1885.817,1724.441 1867.461,1763.031 1867.461,1763.031L1867.442,1763.067C1853.549,1786.103 1828.402,1794.937 1803.213,1797.223C1767.768,1800.44 1732.263,1790.683 1728.221,1789.528C1725.904,1792.92 1704.489,1824.887 1694.177,1862.692C1686.918,1889.303 1685.15,1918.814 1699.493,1943.259C1714.763,1969.287 1748.296,1989.53 1812.803,1994.468Z" style="fill:none;"/>
            </g>
            <g transform="matrix(1.127093,0,0,1.209641,101.506057,2947.989674)">
                <path d="M1298.638,2145.999C1270.492,2114.223 1258,2087 1258,2087L1305,1825C1305,1825 1313.547,1821.1 1329.364,1816.209C1333.885,1824.73 1338.755,1833.653 1344,1843C1423.66,1984.957 1353.577,2094.399 1311,2135C1307.037,2138.779 1302.926,2142.449 1298.638,2145.999ZM1345.768,1811.556C1383.153,1801.847 1444.299,1791.772 1521,1800C1521,1800 1550.081,1716.489 1506.405,1676.369C1482.106,1684.279 1453,1714 1453,1714C1436.908,1686.217 1483,1637 1483,1637L1483.045,1637.031C1479.467,1620.025 1478.828,1557.346 1558,1539C1652.1,1517.195 1683.205,1594.969 1694,1643C1704.444,1689.471 1706.889,1754.161 1748,1825C1790.54,1898.301 1844.37,1979.892 1802,2083C1760.411,2184.207 1660.626,2256.529 1492,2243C1406.386,2236.131 1347.387,2196.024 1310.047,2158.2C1314.358,2154.594 1318.501,2150.877 1322.502,2147.062C1368.039,2103.638 1443.733,1986.67 1358.535,1834.844C1353.999,1826.762 1349.749,1819.004 1345.768,1811.556Z" style="fill:rgb(52,52,52);"/>
            </g>
            <g transform="matrix(1.127093,0,0,1.209641,101.506057,2947.989674)">
                <path d="M1482.49,1636.815C1480.374,1626.319 1479.464,1599.804 1495.974,1576.248C1507.078,1560.405 1526.062,1545.888 1557.887,1538.513C1586.246,1531.941 1608.908,1534.385 1627.034,1542.312C1669.292,1560.793 1686.903,1609.143 1694.488,1642.89C1704.924,1689.324 1707.354,1753.967 1748.432,1824.749C1791.043,1898.172 1844.903,1979.911 1802.462,2083.19C1760.804,2184.568 1660.87,2257.051 1491.96,2243.498C1406.197,2236.617 1347.096,2196.441 1309.692,2158.551C1309.593,2158.452 1309.541,2158.316 1309.548,2158.176C1309.555,2158.037 1309.619,2157.906 1309.727,2157.817C1314.029,2154.217 1318.164,2150.508 1322.157,2146.7C1367.605,2103.361 1443.131,1986.619 1358.099,1835.088C1353.561,1827.003 1349.31,1819.243 1345.327,1811.791C1345.254,1811.656 1345.248,1811.495 1345.31,1811.355C1345.371,1811.215 1345.494,1811.11 1345.642,1811.072C1383.001,1801.37 1444.062,1791.301 1520.655,1799.46C1521.841,1795.912 1530.897,1767.729 1529.911,1737.235C1529.212,1715.643 1523.482,1692.88 1506.282,1676.936C1482.128,1684.952 1453.357,1714.35 1453.357,1714.35C1453.248,1714.461 1453.093,1714.516 1452.938,1714.496C1452.783,1714.477 1452.646,1714.386 1452.567,1714.251C1446.054,1703.006 1449.549,1688.285 1456.159,1674.675C1465.452,1655.54 1480.837,1638.607 1482.49,1636.815ZM1482.635,1636.658C1482.635,1636.658 1482.635,1636.658 1482.635,1636.658C1482.635,1636.658 1482.635,1636.658 1482.635,1636.658ZM1482.509,1636.907C1482.491,1637.004 1482.501,1637.105 1482.541,1637.199C1482.58,1637.287 1482.641,1637.361 1482.718,1637.413L1482.725,1637.415C1482.641,1637.345 1482.579,1637.247 1482.556,1637.134C1482.54,1637.059 1482.524,1636.984 1482.509,1636.907ZM1483.218,1637.5C1481.564,1639.294 1466.287,1656.109 1457.058,1675.112C1450.714,1688.174 1447.195,1702.273 1453.112,1713.178C1456.956,1709.342 1483.674,1683.243 1506.25,1675.893C1506.422,1675.838 1506.61,1675.879 1506.743,1676.001C1524.317,1692.144 1530.2,1715.263 1530.91,1737.203C1531.972,1770.014 1521.472,1800.164 1521.472,1800.164C1521.396,1800.384 1521.178,1800.522 1520.947,1800.497C1444.743,1792.322 1383.909,1802.232 1346.508,1811.88C1350.402,1819.154 1354.551,1826.723 1358.971,1834.599C1444.335,1986.722 1368.473,2103.915 1322.847,2147.424C1318.967,2151.123 1314.954,2154.73 1310.785,2158.235C1348.08,2195.879 1406.865,2235.668 1492.04,2242.502C1660.382,2256.008 1760.019,2183.847 1801.538,2082.81C1843.837,1979.873 1790.037,1898.43 1747.568,1825.251C1706.424,1754.356 1703.965,1689.618 1693.512,1643.11C1685.984,1609.613 1668.578,1561.572 1626.633,1543.228C1608.672,1535.373 1586.214,1532.975 1558.113,1539.487C1526.601,1546.789 1507.787,1561.135 1496.793,1576.822C1480.325,1600.317 1481.401,1626.79 1483.534,1636.928C1483.565,1637.075 1483.528,1637.229 1483.433,1637.346C1483.376,1637.416 1483.302,1637.469 1483.218,1637.5ZM1298.264,2146.331C1270.06,2114.489 1257.546,2087.209 1257.546,2087.209C1257.503,2087.116 1257.49,2087.012 1257.508,2086.912L1304.508,1824.912C1304.537,1824.75 1304.643,1824.613 1304.792,1824.545C1304.792,1824.545 1313.361,1820.634 1329.216,1815.731C1329.445,1815.66 1329.693,1815.763 1329.805,1815.975C1334.325,1824.493 1339.193,1833.412 1344.436,1842.755C1424.262,1985.008 1354.011,2094.676 1311.345,2135.362C1307.374,2139.149 1303.254,2142.827 1298.957,2146.384C1298.749,2146.556 1298.443,2146.533 1298.264,2146.331ZM1298.692,2145.305C1302.836,2141.859 1306.815,2138.3 1310.655,2134.638C1353.143,2094.122 1423.058,1984.905 1343.564,1843.245C1338.392,1834.028 1333.585,1825.223 1329.116,1816.809C1315.106,1821.16 1306.912,1824.699 1305.445,1825.348L1258.521,2086.934C1259.526,2089.074 1272.004,2115.081 1298.692,2145.305Z" style="fill:none;"/>
            </g>
            <g transform="matrix(1.127093,0,0,1.572534,-138.564789,2357.321849)">
                <circle cx="1770" cy="1621" r="10" style="fill:rgb(231,231,231);"/>
            </g>
            <g transform="matrix(1.127093,0,0,1.572534,-138.564789,2357.321849)">
                <path d="M1770,1609.397C1776.504,1609.397 1782.083,1614.496 1782.083,1621C1782.083,1627.504 1776.504,1632.603 1770,1632.603C1763.496,1632.603 1757.917,1627.504 1757.917,1621C1757.917,1614.496 1763.496,1609.397 1770,1609.397ZM1770,1612.603C1765.462,1612.603 1762.083,1616.462 1762.083,1621C1762.083,1625.538 1765.462,1629.397 1770,1629.397C1774.538,1629.397 1777.917,1625.538 1777.917,1621C1777.917,1616.462 1774.538,1612.603 1770,1612.603Z" style="fill:none;"/>
            </g>
            <g transform="matrix(1.127093,0,0,1.209641,116.158268,2960.086086)">
                <path d="M1541.654,2195.4C1544.193,2190.242 1550.442,2188.115 1555.6,2190.654C1560.758,2193.193 1562.885,2199.442 1560.346,2204.6C1560.346,2204.6 1534.862,2255.938 1494.853,2287.241C1510.805,2294.604 1534.573,2308.812 1561.355,2335.583L1651,2335.583C1656.749,2335.583 1661.417,2340.251 1661.417,2346C1661.417,2351.749 1656.749,2356.417 1651,2356.417L1557,2356.417C1554.188,2356.417 1551.496,2355.28 1549.535,2353.265C1505.173,2307.685 1469.977,2300.218 1469.977,2300.218C1465.683,2299.368 1462.379,2295.925 1461.707,2291.6C1461.035,2287.275 1463.138,2282.991 1466.97,2280.878C1512.114,2255.988 1541.654,2195.4 1541.654,2195.4Z" style="fill:rgb(52,52,52);"/>
            </g>
            <g transform="matrix(0.798987,-0.853181,0.794959,0.857504,-936.97285,4988.50883)">
                <path d="M1541.654,2195.4C1544.193,2190.242 1550.442,2188.115 1555.6,2190.654C1560.758,2193.193 1562.885,2199.442 1560.346,2204.6C1560.346,2204.6 1534.862,2255.938 1494.853,2287.241C1510.177,2294.314 1532.714,2307.704 1558.207,2332.48C1581.739,2317.232 1607.106,2311.315 1634.835,2317.494C1640.446,2318.745 1643.987,2324.316 1642.736,2329.928C1641.486,2335.539 1635.915,2339.08 1630.303,2337.829C1605.785,2332.365 1583.68,2339.158 1563.211,2354.362C1559.022,2357.474 1553.175,2357.005 1549.535,2353.265C1505.173,2307.685 1469.977,2300.218 1469.977,2300.218C1465.683,2299.368 1462.379,2295.925 1461.707,2291.6C1461.035,2287.275 1463.138,2282.991 1466.97,2280.878C1512.114,2255.988 1541.654,2195.4 1541.654,2195.4Z" style="fill:rgb(52,52,52);"/>
            </g>
            <g transform="matrix(0.797742,-0.854522,0.796208,0.856168,-957.629684,4963.504248)">
                <path d="M1593.575,2247.62C1593.575,2247.62 1548.397,2257.714 1526.055,2279.955C1513.87,2292.084 1508,2270 1508,2270C1508,2270 1518.163,2253.837 1477,2241C1440.036,2229.473 1471,2195 1471,2195L1593.575,2247.62Z" style="fill:rgb(52,52,52);"/>
            </g>
            <g transform="matrix(1.127093,0,0,1.209641,99.25187,2947.989674)">
                <path d="M1504.039,1649.225C1503.922,1650.169 1503.31,1650.979 1502.434,1651.35C1501.558,1651.721 1500.551,1651.596 1499.791,1651.024C1495.509,1647.862 1487.134,1643.505 1475,1646C1475,1646 1469.072,1631.33 1482,1626C1493.712,1621.171 1505.633,1634.814 1504.039,1649.225Z" style="fill:rgb(231,231,231);"/>
            </g>
            <g transform="matrix(1.127093,0,0,1.209641,99.25187,2947.989674)">
                <path d="M1520.579,1651.283C1519.727,1658.132 1515.287,1664.008 1508.93,1666.699C1502.612,1669.373 1495.353,1668.497 1489.821,1664.38C1487.813,1662.925 1483.915,1661.182 1478.357,1662.325L1464.751,1665.123L1459.547,1652.244C1459.547,1652.244 1448.403,1621.825 1475.647,1610.592C1486.038,1606.307 1496.556,1608.195 1505.146,1614.509C1515.162,1621.869 1522.253,1636.151 1520.593,1651.17L1520.579,1651.283ZM1504.039,1649.225C1505.633,1634.814 1493.712,1621.171 1482,1626C1469.072,1631.33 1475,1646 1475,1646C1487.134,1643.505 1495.509,1647.862 1499.791,1651.024C1500.551,1651.596 1501.558,1651.721 1502.434,1651.35C1503.31,1650.979 1503.922,1650.169 1504.039,1649.225Z" style="fill:rgb(52,52,52);"/>
            </g>
            <g transform="matrix(1.127093,0,0,1.209641,101.506057,2947.989674)">
                <path d="M801.058,1646.867C808.579,1620.119 823.6,1592.413 850.308,1566.122C905.914,1511.386 976.131,1498.017 1044.965,1502.485C1110.54,1506.741 1174.655,1527.309 1221.66,1540.998C1268.051,1554.508 1318.499,1588.601 1349.622,1633.751C1381.923,1680.609 1393.846,1738.947 1361.846,1798.795C1357.381,1807.243 1349.649,1813.493 1340.451,1816.089C1337.016,1817.058 1333.49,1817.486 1329.99,1817.388C1334.334,1825.552 1338.996,1834.083 1344,1843C1423.66,1984.957 1353.577,2094.399 1311,2135C1266.587,2177.352 1203.538,2206 1083,2206C1008.659,2206 925.98,2171.767 873.524,2145.526C914.999,2104.71 945.465,2055.539 954.856,2000.819C962.71,1955.057 961.014,1917.518 946.834,1883.49C941.062,1869.639 933.193,1856.325 922.912,1843.273C927.898,1831.806 927.375,1818.344 922.852,1804.827C917.407,1788.557 906.078,1772.2 897.938,1761.773L1010,1695C1010,1695 1011.693,1694.135 1014.36,1691.958C1029.924,1716.592 1075.268,1763 1196,1763C1242.586,1759.936 1269.994,1739.234 1285.675,1719.659C1292.868,1740.284 1303.541,1765.569 1319.357,1796.892C1320.146,1797.315 1320.904,1797.74 1321.629,1798.169C1325.935,1800.729 1331.103,1801.409 1335.924,1800.049C1340.746,1798.688 1344.797,1795.407 1347.129,1790.973C1404.471,1683.793 1303.22,1582.11 1217,1557C1124.879,1530.172 965.817,1475.805 862,1578C837.843,1601.78 824.184,1626.83 817.29,1651.036C813.45,1649.838 809.421,1648.743 805.192,1647.764C803.807,1647.442 802.429,1647.144 801.058,1646.867ZM813.599,1667.355C802.426,1733.296 837,1789 837,1789C845.822,1786.038 855.457,1783.355 865.77,1780.94L883.556,1770.342C895.807,1785.583 918.441,1818.262 906.43,1839C906.43,1839 877.324,1809.279 853.025,1801.369C933.816,1859.584 952.898,1913.696 938.43,1998C929.32,2051.083 898.819,2098.431 857.875,2137.485C834.383,2125.086 820,2116 820,2116L817,1810L826.795,1804.163L822.839,1797.789C822.839,1797.789 784.501,1736.006 797.352,1663.124C798.702,1663.391 800.062,1663.683 801.43,1664C805.716,1664.993 809.768,1666.116 813.599,1667.355Z" style="fill:rgb(52,52,52);"/>
            </g>
            <g transform="matrix(1.127093,0,0,1.209641,101.506057,2947.989674)">
                <path d="M1321.629,1798.169C1325.935,1800.729 1331.103,1801.409 1335.924,1800.049C1340.746,1798.688 1344.797,1795.407 1347.129,1790.973C1404.471,1683.793 1303.22,1582.11 1217,1557C1124.879,1530.172 965.817,1475.805 862,1578C765.188,1673.299 837,1789 837,1789C964.073,1746.33 1259.892,1761.697 1321.629,1798.169Z" style="fill:rgb(231,231,231);"/>
            </g>
            <g transform="matrix(1.127093,0,0,1.209641,101.506057,2947.989674)">
                <path d="M1027.1,1677.405C1034.074,1666.811 1041.347,1650.485 1045,1626C1053.256,1570.663 1061.154,1480 1171,1480C1264.964,1480 1270.766,1609.129 1271,1633C1271.102,1643.432 1269.843,1657.742 1275.042,1682.397C1276.067,1687.258 1277.343,1692.521 1278.931,1698.236C1283.182,1713.9 1277.305,1730.561 1264.167,1740.091C1248.093,1751.719 1226.031,1761.025 1196,1763C1103.631,1763 1055.39,1735.836 1030.851,1712.04C1021.467,1702.885 1019.896,1688.36 1027.105,1677.409C1027.1,1677.405 1027.1,1677.405 1027.1,1677.405Z" style="fill:rgb(52,52,52);"/>
            </g>
            <g transform="matrix(1.127093,0,0,1.572534,-501.365698,2319.608472)">
                <circle cx="1770" cy="1621" r="10" style="fill:rgb(231,231,231);"/>
            </g>
            <g transform="matrix(1.127093,0,0,1.572534,-501.365698,2319.608472)">
                <path d="M1770,1609.397C1776.504,1609.397 1782.083,1614.496 1782.083,1621C1782.083,1627.504 1776.504,1632.603 1770,1632.603C1763.496,1632.603 1757.917,1627.504 1757.917,1621C1757.917,1614.496 1763.496,1609.397 1770,1609.397ZM1770,1612.603C1765.462,1612.603 1762.083,1616.462 1762.083,1621C1762.083,1625.538 1765.462,1629.397 1770,1629.397C1774.538,1629.397 1777.917,1625.538 1777.917,1621C1777.917,1616.462 1774.538,1612.603 1770,1612.603Z" style="fill:none;"/>
            </g>
            <g transform="matrix(1.127093,0,0,1.572534,-618.673431,2319.608472)">
                <circle cx="1770" cy="1621" r="10" style="fill:rgb(231,231,231);"/>
            </g>
            <g transform="matrix(1.127093,0,0,1.572534,-618.673431,2319.608472)">
                <path d="M1770,1609.397C1776.504,1609.397 1782.083,1614.496 1782.083,1621C1782.083,1627.504 1776.504,1632.603 1770,1632.603C1763.496,1632.603 1757.917,1627.504 1757.917,1621C1757.917,1614.496 1763.496,1609.397 1770,1609.397ZM1770,1612.603C1765.462,1612.603 1762.083,1616.462 1762.083,1621C1762.083,1625.538 1765.462,1629.397 1770,1629.397C1774.538,1629.397 1777.917,1625.538 1777.917,1621C1777.917,1616.462 1774.538,1612.603 1770,1612.603Z" style="fill:none;"/>
            </g>
            <g transform="matrix(1.127093,0,0,1.209641,-330.543518,2960.086086)">
                <path d="M1542.657,2186.238C1541.974,2180.529 1546.054,2175.34 1551.762,2174.657C1557.471,2173.974 1562.66,2178.054 1563.343,2183.762C1563.343,2183.762 1570.192,2245.038 1528.471,2277.279C1535.996,2287.159 1548.28,2305.394 1563.459,2335.583L1651,2335.583C1656.749,2335.583 1661.417,2340.251 1661.417,2346C1661.417,2351.749 1656.749,2356.417 1651,2356.417L1557,2356.417C1553.024,2356.417 1549.395,2354.154 1547.646,2350.583C1522.52,2299.305 1505.696,2282.427 1505.696,2282.427C1503.351,2280.121 1502.232,2276.841 1502.68,2273.582C1503.128,2270.323 1505.089,2267.466 1507.97,2265.878C1528.685,2254.457 1537.147,2234.723 1540.667,2218.006C1544.325,2200.637 1542.657,2186.238 1542.657,2186.238Z" style="fill:rgb(52,52,52);"/>
            </g>
            <g transform="matrix(1.127093,0,0,1.209641,-449.844323,2960.086086)">
                <path d="M1542.657,2186.238C1541.974,2180.529 1546.054,2175.34 1551.762,2174.657C1557.471,2173.974 1562.66,2178.054 1563.343,2183.762C1563.343,2183.762 1570.192,2245.038 1528.471,2277.279C1535.996,2287.159 1548.28,2305.394 1563.459,2335.583L1651,2335.583C1656.749,2335.583 1661.417,2340.251 1661.417,2346C1661.417,2351.749 1656.749,2356.417 1651,2356.417L1557,2356.417C1553.024,2356.417 1549.395,2354.154 1547.646,2350.583C1522.52,2299.305 1505.696,2282.427 1505.696,2282.427C1503.351,2280.121 1502.232,2276.841 1502.68,2273.582C1503.128,2270.323 1505.089,2267.466 1507.97,2265.878C1528.685,2254.457 1537.147,2234.723 1540.667,2218.006C1544.325,2200.637 1542.657,2186.238 1542.657,2186.238Z" style="fill:rgb(52,52,52);"/>
            </g>
            <g transform="matrix(1.083694,-0.332439,0.309752,1.163063,-934.161392,3517.790827)">
                <path d="M1607,2237C1607,2237 1556.872,2246.392 1531,2275C1519.468,2287.751 1508,2270 1508,2270C1508,2270 1508.824,2235.567 1467.661,2222.73C1430.698,2211.203 1471.691,2159.836 1471.691,2159.836L1607,2237Z" style="fill:rgb(52,52,52);"/>
            </g>
            <g transform="matrix(1.127093,-0.000705,0.000657,1.209641,101.787327,2949.490263)">
                <path d="M1607,2237C1607,2237 1556.872,2246.392 1531,2275C1519.468,2287.751 1508,2270 1508,2270C1508,2270 1508.824,2235.567 1467.661,2222.73C1430.698,2211.203 1471.691,2159.836 1471.691,2159.836L1607,2237Z" style="fill:rgb(52,52,52);"/>
            </g>
            <g transform="matrix(1.083694,-0.332439,0.309752,1.163063,-1053.462197,3517.790827)">
                <path d="M1578.015,2254.716C1578.015,2254.716 1548.08,2255.319 1522.208,2283.927C1510.676,2296.679 1508,2270 1508,2270C1508,2270 1499.072,2229.659 1461.207,2205.285C1428.65,2184.327 1471.691,2159.836 1471.691,2159.836L1578.015,2254.716Z" style="fill:rgb(52,52,52);"/>
            </g>
            <g transform="matrix(0,0.673943,-0.716509,0,2880.040299,4347.579168)">
                <path d="M1115.351,1995.703L1160.773,2086.545C1163.25,2091.5 1162.708,2097.215 1159.331,2101.743C1155.954,2106.271 1150.199,2109 1144.027,2109L1057.233,2109C1051.666,2109 1046.474,2106.538 1043.428,2102.454C1040.382,2098.37 1039.893,2093.214 1042.127,2088.745L1088.649,1995.703L1044.037,1906.479C1041.381,1901.167 1041.962,1895.04 1045.583,1890.185C1049.203,1885.331 1055.374,1882.405 1061.991,1882.405L1147.347,1882.405C1152.786,1882.405 1157.859,1884.81 1160.835,1888.801C1163.811,1892.791 1164.288,1897.828 1162.105,1902.194L1115.351,1995.703Z" style="fill:rgb(231,231,231);"/>
            </g>
            <g transform="matrix(0,0.673943,-0.716509,0,2880.040299,4347.579168)">
                <path d="M1148.012,1995.703L1188.172,2076.023C1194.702,2089.084 1193.273,2104.15 1184.371,2116.087C1175.47,2128.023 1160.297,2135.217 1144.027,2135.217L1057.233,2135.217C1041.567,2135.217 1026.958,2128.29 1018.388,2116.797C1009.817,2105.305 1008.44,2090.798 1014.728,2078.223L1055.988,1995.703L1016.638,1917.002C1009.929,1903.584 1011.397,1888.105 1020.542,1875.842C1029.688,1863.579 1045.275,1856.188 1061.991,1856.188L1147.347,1856.188C1162.885,1856.188 1177.374,1863.058 1185.875,1874.457C1194.376,1885.856 1195.741,1900.244 1189.505,1912.717L1148.012,1995.703ZM1115.351,1995.703L1162.105,1902.194C1164.288,1897.828 1163.811,1892.791 1160.835,1888.801C1157.859,1884.81 1152.786,1882.405 1147.347,1882.405L1061.991,1882.405C1055.374,1882.405 1049.203,1885.331 1045.583,1890.185C1041.962,1895.04 1041.381,1901.167 1044.037,1906.479L1088.649,1995.703L1042.127,2088.745C1039.893,2093.214 1040.382,2098.37 1043.428,2102.454C1046.474,2106.538 1051.666,2109 1057.233,2109L1144.027,2109C1150.199,2109 1155.954,2106.271 1159.331,2101.743C1162.708,2097.215 1163.25,2091.5 1160.773,2086.545L1115.351,1995.703Z" style="fill:rgb(52,52,52);"/>
            </g>
            <g transform="matrix(-1.127093,0,0,1.209641,2760.803458,3099.194831)">
                <path d="M1483.045,1637.031C1479.467,1620.025 1478.828,1557.346 1558,1539C1652.1,1517.195 1704.205,1613.969 1703,1683C1779.517,1701.584 1855.113,1744.434 1926.224,1826.272C1981.812,1890.246 2089.559,2007.391 2268,2084C2250.823,2125.8 2172.374,2109.452 2074.315,2074.903C2041.519,2137.408 1969.934,2128.594 1852.331,2085.726C1806.578,2196.193 1455.993,2076.893 1421,1873C1406.531,1788.696 1425.614,1734.584 1506.405,1676.369C1482.106,1684.279 1453,1714 1453,1714C1436.908,1686.217 1483,1637 1483,1637C1483,1637 1483.015,1637.01 1483.045,1637.031Z" style="fill:rgb(52,52,52);"/>
            </g>
            <g transform="matrix(1.127093,0,0,1.209641,-815.61857,2960.086086)">
                <path d="M1541.654,2195.4C1544.193,2190.242 1550.442,2188.115 1555.6,2190.654C1560.758,2193.193 1562.885,2199.442 1560.346,2204.6C1560.346,2204.6 1534.862,2255.938 1494.853,2287.241C1510.805,2294.604 1534.573,2308.812 1561.355,2335.583L1651,2335.583C1656.749,2335.583 1661.417,2340.251 1661.417,2346C1661.417,2351.749 1656.749,2356.417 1651,2356.417L1557,2356.417C1554.188,2356.417 1551.496,2355.28 1549.535,2353.265C1505.173,2307.685 1469.977,2300.218 1469.977,2300.218C1465.683,2299.368 1462.379,2295.925 1461.707,2291.6C1461.035,2287.275 1463.138,2282.991 1466.97,2280.878C1512.114,2255.988 1541.654,2195.4 1541.654,2195.4Z" style="fill:rgb(52,52,52);"/>
            </g>
            <g transform="matrix(-1.127093,0,0,1.209641,2763.057644,3099.194831)">
                <path d="M1514.614,1642.392C1514.424,1643.85 1513.1,1644.887 1511.639,1644.721C1505.693,1644.151 1489.553,1643.008 1475,1646C1475,1646 1469.072,1631.33 1482,1626C1494.276,1620.938 1516.584,1628.151 1514.614,1642.392Z" style="fill:rgb(231,231,231);"/>
            </g>
            <g transform="matrix(-1.127093,0,0,1.209641,2763.057644,3099.194831)">
                <path d="M1531.13,1644.63L1531.132,1644.616C1532.822,1632.229 1527.017,1621.81 1516.606,1615.04C1505.098,1607.557 1487.456,1605.722 1475.647,1610.592C1448.403,1621.825 1459.547,1652.244 1459.547,1652.244L1464.751,1665.123L1478.357,1662.325C1490.888,1659.748 1504.782,1660.809 1509.956,1661.303C1520.35,1662.377 1529.733,1654.999 1531.13,1644.63ZM1512.876,1628.097C1513.041,1628.11 1513.206,1628.126 1513.372,1628.145L1513.23,1628.131L1512.876,1628.097ZM1514.614,1642.392C1514.424,1643.85 1513.1,1644.887 1511.639,1644.721C1505.693,1644.151 1489.553,1643.008 1475,1646C1475,1646 1469.072,1631.33 1482,1626C1494.276,1620.938 1516.584,1628.151 1514.614,1642.392Z" style="fill:rgb(52,52,52);"/>
            </g>
            <g transform="matrix(1.127093,-0.000705,0.000657,1.209641,-829.98951,2949.490263)">
                <path d="M1637.037,2174.017C1637.037,2174.017 1556.872,2246.392 1531,2275C1519.468,2287.751 1508,2270 1508,2270C1508,2270 1508.824,2235.567 1467.661,2222.73C1430.698,2211.203 1471.691,2159.836 1471.691,2159.836L1637.037,2174.017Z" style="fill:rgb(52,52,52);"/>
            </g>
            <g transform="matrix(5.998246,0,0,1.906787,-3565.707779,1774.421728)">
                <ellipse cx="762" cy="1729" rx="8" ry="29" style="fill:rgb(231,231,231);"/>
            </g>
            <g transform="matrix(5.998246,0,0,1.906787,-3565.707779,1774.421728)">
                <path d="M762,1689.427C768.081,1689.427 773.132,1706.958 773.132,1729C773.132,1751.042 768.081,1768.573 762,1768.573C755.919,1768.573 750.868,1751.042 750.868,1729C750.868,1706.958 755.919,1689.427 762,1689.427ZM762,1700C757.585,1700 754,1712.994 754,1729C754,1745.006 757.585,1758 762,1758C766.415,1758 770,1745.006 770,1729C770,1712.994 766.415,1700 762,1700Z" style="fill:none;"/>
            </g>
            <g transform="matrix(1.127093,0,0,1.209641,106.014429,2951.618597)">
                <path d="M1183,1610C1190.65,1602.684 1197.723,1600.958 1204.641,1604.353C1222.682,1613.205 1231.985,1628.828 1235,1648C1236.874,1659.916 1194.655,1638.035 1173.36,1642.379C1173.36,1642.379 1173.36,1642.379 1173.36,1642.379C1172.727,1642.508 1172.068,1642.362 1171.548,1641.978C1171.028,1641.593 1170.696,1641.005 1170.635,1640.362C1170.119,1632.558 1173.092,1619.474 1183,1610Z" style="fill:rgb(231,231,231);"/>
            </g>
            <g transform="matrix(1.127093,0,0,1.209641,106.014429,2951.618597)">
                <path d="M1170.201,1596.616C1185.085,1582.383 1199.338,1581.123 1212.799,1587.728C1236.633,1599.423 1249.31,1619.794 1253.294,1645.123C1254.351,1651.847 1252.559,1656.882 1249.87,1660.772C1246.688,1665.375 1241.265,1669.526 1232.474,1670.059C1227.052,1670.388 1217.427,1668.397 1206.549,1665.512C1196.653,1662.887 1185.045,1658.895 1177.063,1660.524C1171.282,1661.703 1165.273,1660.372 1160.531,1656.862C1155.788,1653.352 1152.76,1647.993 1152.174,1641.852L1152.157,1641.583C1151.394,1630.049 1155.558,1610.619 1170.201,1596.616ZM1183,1610C1173.092,1619.474 1170.119,1632.558 1170.635,1640.362C1170.696,1641.005 1171.028,1641.593 1171.548,1641.978C1172.068,1642.362 1172.727,1642.508 1173.36,1642.379C1194.655,1638.035 1236.874,1659.916 1235,1648C1231.985,1628.828 1222.682,1613.205 1204.641,1604.353C1197.723,1600.958 1190.65,1602.684 1183,1610Z" style="fill:rgb(52,52,52);"/>
            </g>
            <g transform="matrix(-1.321474,-0.077528,-0.06152,1.207838,3524.128529,3016.039419)">
                <path d="M1510.709,1645.94C1510.648,1646.863 1510.189,1647.685 1509.492,1648.119C1508.796,1648.553 1507.959,1648.538 1507.274,1648.08C1501.56,1644.401 1487.302,1637.124 1472.216,1644.271C1471.905,1644.422 1471.551,1644.383 1471.269,1644.166C1470.988,1643.95 1470.815,1643.584 1470.809,1643.189C1470.806,1639.345 1471.918,1630.157 1482,1626C1493.898,1621.094 1511.784,1631.858 1510.709,1645.94Z" style="fill:rgb(231,231,231);"/>
            </g>
            <g transform="matrix(1.127093,0,0,1.572534,-989.999173,2522.179729)">
                <circle cx="1770" cy="1621" r="10" style="fill:rgb(52,52,52);"/>
            </g>
            <g transform="matrix(1.127093,0,0,1.572534,-989.999173,2522.179729)">
                <path d="M1770,1609.397C1776.504,1609.397 1782.083,1614.496 1782.083,1621C1782.083,1627.504 1776.504,1632.603 1770,1632.603C1763.496,1632.603 1757.917,1627.504 1757.917,1621C1757.917,1614.496 1763.496,1609.397 1770,1609.397ZM1770,1612.603C1765.462,1612.603 1762.083,1616.462 1762.083,1621C1762.083,1625.538 1765.462,1629.397 1770,1629.397C1774.538,1629.397 1777.917,1625.538 1777.917,1621C1777.917,1616.462 1774.538,1612.603 1770,1612.603Z" style="fill:none;"/>
            </g>
        </g>
    </g>
</svg>
