<?xml version="1.0" encoding="UTF-8" standalone="no"?><!DOCTYPE svg PUBLIC "-//W3C//DTD SVG 1.1//EN" "http://www.w3.org/Graphics/SVG/1.1/DTD/svg11.dtd"><svg width="100%" height="100%" viewBox="0 0 55 29" version="1.1" xmlns="http://www.w3.org/2000/svg" xmlns:xlink="http://www.w3.org/1999/xlink" xml:space="preserve" xmlns:serif="http://www.serif.com/" style="fill-rule:evenodd;clip-rule:evenodd;stroke-linejoin:round;stroke-miterlimit:2;"><rect id="Page-1" serif:id="Page 1" x="0" y="0" width="54.752" height="28.346" style="fill:none;"/><clipPath id="_clip1"><rect x="0" y="0" width="54.752" height="28.346"/></clipPath><g clip-path="url(#_clip1)"><g id="Layer-1" serif:id="Layer 1"><path d="M46.956,20.316l-10.224,0l0,-13.428l4.873,0l0,9.302l5.351,0l0,4.126Zm-12.23,-4.17l-1.151,0.573l0.123,1.28c0.056,0.596 -0.433,1.102 -1.031,1.065l-1.283,-0.079l-0.534,1.169c-0.249,0.545 -0.926,0.739 -1.425,0.408l-1.072,-0.71l-1.046,0.746c-0.488,0.347 -1.172,0.176 -1.439,-0.36l-0.573,-1.15l-1.279,0.122c-0.596,0.057 -1.102,-0.433 -1.066,-1.031l0.079,-1.283l-1.169,-0.533c-0.545,-0.249 -0.738,-0.926 -0.407,-1.426l0.709,-1.071l-0.745,-1.047c-0.347,-0.488 -0.176,-1.171 0.36,-1.438l1.15,-0.573l-0.122,-1.28c-0.057,-0.596 0.432,-1.102 1.03,-1.065l1.283,0.079l0.534,-1.169c0.249,-0.545 0.926,-0.739 1.426,-0.408l1.071,0.71l1.047,-0.746c0.488,-0.347 1.171,-0.176 1.438,0.36l0.573,1.151l1.279,-0.123c0.597,-0.057 1.103,0.433 1.066,1.031l-0.079,1.283l1.169,0.533c0.545,0.249 0.739,0.926 0.408,1.426l-0.71,1.071l0.745,1.047c0.348,0.488 0.177,1.171 -0.359,1.438m-20.731,4.808c-4.001,0 -5.778,-0.916 -6.561,-1.655l1.307,-3.444c0,0 4.171,2.514 6.272,-0.744c-0.026,0.021 -0.879,0.702 -2.787,0.702c-1.939,0 -3.485,-1.441 -3.485,-3.649l0,-4.772l4.327,0l0,4.013c0,0.78 0.632,1.412 1.411,1.412c0.781,0 1.413,-0.632 1.413,-1.412l0,-4.013l4.298,0l0,7.03c0,0 0.506,6.532 -6.195,6.532m30.425,-19.685c-0.618,-0.131 -1.23,-0.288 -1.84,-0.453c-4.043,-1.088 -26.366,-1.088 -30.408,0c-0.61,0.165 -1.222,0.322 -1.84,0.453c-5.906,1.255 -10.332,6.599 -10.332,12.904c0,6.305 4.426,11.649 10.332,12.904c0.618,0.131 1.23,0.289 1.84,0.453c4.042,1.089 26.365,1.089 30.408,0c0.61,-0.164 1.222,-0.322 1.84,-0.453c5.905,-1.255 10.332,-6.599 10.332,-12.904c0,-6.305 -4.427,-11.649 -10.332,-12.904" style="fill:#343434;fill-rule:nonzero;"/><path d="M25.342,11.774c-0.108,-0.027 -0.22,-0.019 -0.329,0.019c-0.044,0.015 -0.084,0.054 -0.126,0.078c-0.064,0.037 -0.13,0.063 -0.188,0.118c-0.197,0.183 -0.36,0.463 -0.444,0.797c-0.166,0.667 0.049,1.295 0.483,1.404c0.109,0.027 0.22,0.019 0.329,-0.019c0.044,-0.015 0.084,-0.054 0.126,-0.079c0.064,-0.036 0.129,-0.063 0.188,-0.117c0.197,-0.183 0.36,-0.463 0.444,-0.797c0.166,-0.667 -0.05,-1.296 -0.483,-1.404" style="fill:#343434;fill-rule:nonzero;"/><path d="M28.298,12.513c-0.189,-0.047 -0.386,0.028 -0.564,0.166c-0.23,0.178 -0.429,0.47 -0.522,0.846c-0.167,0.667 0.048,1.295 0.482,1.404c0.109,0.027 0.22,0.019 0.329,-0.019c0.328,-0.113 0.633,-0.493 0.758,-0.993c0.166,-0.667 -0.05,-1.296 -0.483,-1.404" style="fill:#343434;fill-rule:nonzero;"/></g></g></svg>