<svg width="410" height="600" viewBox="0 0 410 600" fill="none" xmlns="http://www.w3.org/2000/svg">
<path d="M410 600H0V0H410V600ZM24 24V504H386V24H24Z" fill="white"/>
<g clip-path="url(#clip0_342_1345)">
<path fill-rule="evenodd" clip-rule="evenodd" d="M58.9588 558.735C57.7663 559.872 56.3795 560.855 54.9286 561.654C55.0192 561.996 54.9915 562.371 54.823 562.713C54.823 562.713 54.312 563.727 53.4321 564.872C53.1955 565.18 52.9322 565.498 52.645 565.808C53.1653 566.155 53.7433 566.603 54.3554 567.181H58.02C58.8591 567.181 59.5403 567.862 59.5403 568.701C59.5403 569.54 58.8591 570.222 58.02 570.222H53.7326C53.3222 570.222 52.9293 570.056 52.643 569.762C50.9065 567.977 49.5603 567.638 49.5603 567.638C48.9336 567.514 48.4514 567.012 48.3533 566.381C48.344 566.321 48.3383 566.261 48.3362 566.201C48.3157 565.634 48.6152 565.095 49.1216 564.816C49.7592 564.464 50.3167 563.932 50.7713 563.391C47.1176 564.455 43.8298 564.176 42.9596 562.075C37.5956 564.03 34.3305 564.432 32.8347 561.581C28.3621 563.157 24.7839 563.903 24.0005 561.996C32.1394 558.502 37.0538 553.159 39.5892 550.241C42.8327 546.508 46.2807 544.554 49.7707 543.706C49.7236 541.007 51.4632 537.379 54.6644 537.024C55.1976 536.965 55.7715 536.996 56.3843 537.138C56.5798 537.184 56.7646 537.235 56.9393 537.291C58.9219 537.933 59.6023 539.253 59.7934 540.301C59.9382 540.31 60.0853 540.343 60.2317 540.404C60.7995 540.638 61.0017 541.055 61.0539 541.438C61.0924 541.721 61.0493 541.986 61.0111 542.147C60.9876 542.245 60.966 542.304 60.966 542.304L60.7435 542.854C61.0363 543.334 61.2923 543.887 61.3254 544.393C61.3424 544.653 61.3002 544.901 61.1734 545.12C61.1734 545.12 60.9173 544.859 60.5362 544.535C60.0496 544.121 59.3591 543.606 58.7376 543.404C59.2946 543.805 59.7873 544.202 60.2202 544.601C62.6507 546.837 63.1931 549.109 62.633 552.373C62.2175 554.794 60.8263 556.953 58.9588 558.735ZM54.7831 540.6C54.6856 540.958 54.6315 541.353 54.6315 541.768C54.6315 543.392 55.4592 544.71 56.4787 544.71H56.4832C56.7002 544.709 56.9084 544.649 57.1017 544.538C57.5236 544.297 57.8746 543.819 58.0911 543.204C58.1395 543.066 58.1812 542.922 58.2154 542.772C58.287 542.459 58.3259 542.12 58.3259 541.768C58.3259 540.345 57.6902 539.157 56.8468 538.885C56.7278 538.846 56.6047 538.826 56.4787 538.826C55.7198 538.826 55.0671 539.557 54.7831 540.6ZM66.4729 538.385C66.482 538.165 66.5493 537.945 66.6775 537.75L66.6773 537.75C66.9954 537.267 67.3271 536.522 67.4938 535.405C67.7034 534 67.908 532.096 68.9124 530.683C65.538 530.207 61.9127 530.493 59.1469 533.216C58.5105 533.842 58.0339 534.488 57.6842 535.135C57.4368 535.054 57.1754 534.981 56.8991 534.917C56.359 534.792 55.8386 534.726 55.339 534.714C55.8054 533.665 56.5134 532.608 57.5471 531.591C60.4206 528.762 64.0335 528.023 67.5906 528.254C69 528.346 70.3957 528.593 71.7082 528.897C72.1637 528.799 72.6723 528.746 73.2407 528.746C74.5726 528.746 75.5161 529.315 76.1844 530.132C81.0356 531.662 86.2633 537.407 83.5791 543.407C85.118 543.198 87.0234 543.108 89.2046 543.342C89.2046 543.342 90.531 539.533 88.5389 537.703C87.4306 538.063 86.103 539.419 86.103 539.419C85.7301 538.775 86.0894 537.879 86.533 537.153L86.3104 536.602C86.3104 536.602 85.8021 535.215 87.0448 534.702C87.1912 534.642 87.3383 534.609 87.4831 534.6C87.691 533.459 88.4783 531.996 90.8922 531.437C95.1842 530.442 96.6029 533.99 97.0953 536.181C97.4933 537.952 97.6366 540.303 98.7667 542.913C99.5169 543.138 103.56 544.205 104.986 541.522C104.986 541.522 105.827 539.51 109 539.51H129.935C129.935 539.51 129.155 545.892 115.705 547.223C115.705 547.223 123.019 549.801 110.414 551.933C110.414 551.933 112.057 553.815 105.665 553.705C105.415 551.799 104.555 548.999 101.745 547.594C101.537 547.491 101.348 547.408 101.177 547.344C102.518 549.95 103.421 552.842 102.021 556.249C101.579 557.325 100.993 558.329 100.257 559.229C100.419 559.807 100.754 561.162 100.808 562.663C101.279 562.57 101.817 562.495 102.423 562.455C102.831 561.287 103.558 560.335 104.661 559.638C105.37 559.189 106.31 559.401 106.758 560.11C107.206 560.82 106.995 561.76 106.285 562.208C105.584 562.651 105.248 563.34 105.123 564.173C105.01 564.926 104.357 565.479 103.595 565.467C101.106 565.427 99.9122 566.136 99.9122 566.136C99.3805 566.49 98.6841 566.474 98.1694 566.096C97.6546 565.717 97.4312 565.058 97.6102 564.444C97.8898 563.487 97.8244 562.396 97.6819 561.524C96.1641 562.501 94.3095 563.185 92.0989 563.472C91.7263 564.082 91.126 564.972 90.352 565.808C90.8723 566.155 91.4502 566.603 92.0623 567.181H95.727C96.5661 567.181 97.2473 567.862 97.2473 568.701C97.2473 569.54 96.5661 570.222 95.727 570.222H91.4395C91.0292 570.222 90.6362 570.056 90.35 569.762C88.6134 567.977 87.2673 567.638 87.2673 567.638C86.6406 567.514 86.1584 567.012 86.0603 566.381C85.9621 565.749 86.2691 565.124 86.8285 564.816C87.3926 564.505 87.8939 564.053 88.3168 563.578C88.173 563.569 88.028 563.559 87.8819 563.547C84.7544 563.296 82.4055 562.073 80.7193 560.709C80.8842 560.566 81.0442 560.42 81.2001 560.272C83.5421 558.038 87.4945 552.038 83.1485 544.237C82.739 544.868 82.1125 545.333 81.3824 545.539C81.3471 545.549 81.3117 545.558 81.2761 545.567C84.678 551.913 81.5418 556.795 79.6263 558.621C79.4455 558.794 79.258 558.961 79.0624 559.123C77.9466 560.047 76.5692 560.793 74.6966 561.272C74.7258 561.759 74.7803 564.029 73.4205 565.688C73.6741 566.079 73.968 566.571 74.293 567.181H77.6499C78.489 567.181 79.1703 567.862 79.1703 568.701C79.1703 569.54 78.489 570.222 77.6499 570.222H73.3625C73.271 570.222 73.1808 570.213 73.0928 570.198C73.0049 570.213 72.9144 570.222 72.8221 570.222H68.5346C67.9544 570.222 67.4247 569.891 67.1694 569.37C66.1335 567.256 65.4617 566.547 65.4617 566.547C65.1194 566.21 64.9562 565.732 65.0215 565.256C65.0869 564.78 65.3732 564.363 65.7937 564.131C66.4276 563.782 66.6591 563.16 66.7669 562.648C66.861 562.201 66.8575 561.81 66.8492 561.635C64.8163 561.275 62.7916 560.531 61.1281 559.79C63.049 557.778 64.4296 555.387 64.8807 552.758C65.2954 550.342 65.1686 548.362 64.4197 546.565C64.1974 546.031 63.9182 545.51 63.5739 544.998C63.6119 544.711 63.6164 544.415 63.5877 544.114C63.5553 543.774 63.4806 543.427 63.3642 543.079C63.2317 542.683 63.0375 542.285 62.8234 541.915C63.8796 541.807 64.9942 541.735 66.1292 541.697V539.765C66.1292 539.407 66.1943 539.057 66.3167 538.731C66.3613 538.612 66.4135 538.497 66.4729 538.385ZM73.4482 536.271C73.4719 536.288 73.502 536.295 73.5308 536.289C74.5021 536.091 76.4278 537.089 76.3423 536.545C76.2048 535.671 75.7804 534.958 74.9576 534.555C74.642 534.4 74.3194 534.479 73.9705 534.812C73.5186 535.244 73.383 535.841 73.4065 536.197C73.4093 536.226 73.4245 536.253 73.4482 536.271ZM69.3693 543.946C69.3925 543.938 69.4153 543.929 69.4379 543.92L73.5972 542.097L77.8786 543.973C78.0786 544.061 78.3092 544.042 78.4919 543.922C78.6746 543.803 78.7848 543.599 78.7848 543.381V539.956C78.7848 539.69 78.6507 539.443 78.4285 539.297C78.3651 539.256 78.297 539.224 78.2264 539.203C78.0493 539.149 77.8563 539.159 77.6825 539.235L73.5972 541.025L69.3372 539.159C69.1325 539.069 68.8965 539.089 68.7095 539.211C68.5225 539.333 68.4098 539.541 68.4098 539.765V543.248C68.4098 543.495 68.5347 543.726 68.742 543.862C68.7896 543.893 68.84 543.918 68.8922 543.937C69.0515 543.939 69.2105 543.942 69.3693 543.946ZM77.5245 533.222C77.7621 534.343 77.7981 535.337 77.8018 535.725C77.8048 536.021 77.7835 536.387 77.8247 536.894C78.4698 536.857 79.1198 537.025 79.6762 537.388C80.5429 537.955 81.0653 538.92 81.0653 539.956V543.186C81.1503 543.116 81.2215 543.029 81.2742 542.93C83.3955 538.931 80.723 535.114 77.5245 533.222ZM71.6807 561.761C71.114 561.81 70.5133 561.841 69.8757 561.853C69.8495 562.761 69.6429 564.407 68.5927 565.688C68.8463 566.079 69.1402 566.571 69.4652 567.181H70.7651C70.4613 566.728 70.2896 566.547 70.2896 566.547C69.9472 566.21 69.784 565.732 69.8494 565.256C69.9147 564.78 70.201 564.363 70.6215 564.131C71.2555 563.782 71.487 563.16 71.5947 562.648C71.6705 562.288 71.683 561.965 71.6807 561.761Z" fill="#970023"/>
</g>
<path d="M285.661 539.557H284.149L283.832 537.803H281.275V542.6H286.408L286.931 539.837H288.573V544H277.093V542.917L278.848 542.525V532.035L277.093 531.643V530.56H288.163V534.517H286.632L286.091 531.923H281.275V536.403H283.832L284.149 534.629H285.661V539.557ZM290.128 541.797C290.128 540.764 290.601 539.968 291.547 539.408C292.493 538.836 293.98 538.394 296.008 538.083C295.958 537.46 295.89 536.981 295.803 536.645C295.716 536.309 295.604 536.023 295.467 535.787C295.305 535.5 295.106 535.27 294.87 535.096C294.633 534.922 294.334 534.835 293.974 534.835C293.712 534.835 293.47 534.884 293.246 534.984C293.034 535.084 292.891 535.22 292.816 535.395C292.99 535.482 293.109 535.619 293.171 535.805C293.246 535.992 293.283 536.154 293.283 536.291C293.283 536.602 293.146 536.882 292.872 537.131C292.598 537.367 292.269 537.485 291.883 537.485C291.497 537.485 291.192 537.361 290.968 537.112C290.744 536.851 290.632 536.527 290.632 536.141C290.632 535.631 290.813 535.196 291.174 534.835C291.534 534.474 291.995 534.2 292.555 534.013C293.115 533.827 293.681 533.733 294.254 533.733C294.838 533.733 295.361 533.82 295.822 533.995C296.294 534.156 296.674 534.362 296.96 534.611C297.943 535.482 298.435 536.863 298.435 538.755V541.181C298.435 541.791 298.472 542.214 298.547 542.451C298.634 542.687 298.814 542.805 299.088 542.805H299.928V543.645C298.783 544.006 297.918 544.187 297.334 544.187C296.923 544.187 296.649 544.05 296.512 543.776C296.375 543.502 296.307 542.961 296.307 542.152H296.232C295.846 542.787 295.336 543.284 294.702 543.645C294.067 544.006 293.382 544.187 292.648 544.187C291.864 544.187 291.248 543.975 290.8 543.552C290.352 543.129 290.128 542.544 290.128 541.797ZM293.787 542.824C294.048 542.824 294.334 542.737 294.646 542.563C294.969 542.388 295.249 542.146 295.486 541.835C295.622 541.66 295.753 541.412 295.878 541.088C296.002 540.764 296.064 540.379 296.064 539.931C296.064 539.781 296.058 539.613 296.046 539.427C296.033 539.24 296.014 539.066 295.99 538.904C295.131 539.091 294.453 539.29 293.955 539.501C293.47 539.713 293.121 539.968 292.91 540.267C292.71 540.553 292.611 540.908 292.611 541.331C292.611 541.866 292.735 542.252 292.984 542.488C293.233 542.712 293.501 542.824 293.787 542.824ZM306.086 535.283C305.949 535.283 305.794 535.37 305.62 535.544C305.445 535.706 305.284 535.899 305.134 536.123C304.997 536.347 304.898 536.546 304.836 536.72C304.686 537.143 304.556 537.579 304.444 538.027C304.332 538.475 304.276 539.022 304.276 539.669V542.6L306.292 542.955V544H300.468V542.955L301.905 542.6V535.04L300.468 534.685V533.92H303.716L304.126 536.384H304.201C304.487 535.538 304.873 534.884 305.358 534.424C305.844 533.964 306.379 533.733 306.964 533.733C307.449 533.733 307.853 533.889 308.177 534.2C308.5 534.499 308.662 534.903 308.662 535.413C308.662 535.787 308.55 536.129 308.326 536.44C308.102 536.739 307.785 536.888 307.374 536.888C306.876 536.888 306.522 536.776 306.31 536.552C306.099 536.316 305.993 536.06 305.993 535.787C305.993 535.7 305.993 535.637 305.993 535.6C306.005 535.55 306.036 535.444 306.086 535.283ZM310.656 542.581V530.859L309.218 530.504V529.44H313.026V542.581L314.464 542.936V544H309.218V542.936L310.656 542.581ZM326.59 542.693C327.648 542.693 328.401 542.432 328.849 541.909C329.297 541.374 329.521 540.59 329.521 539.557V538.811L327.953 538.419V537.299H333.515V538.419L331.947 538.811V544H330.417L329.95 542.525C329.415 543.123 328.855 543.552 328.27 543.813C327.697 544.062 327.019 544.187 326.235 544.187C324.53 544.187 323.168 543.664 322.147 542.619C321.575 542.034 321.127 541.293 320.803 540.397C320.492 539.501 320.337 538.512 320.337 537.429C320.337 536.322 320.498 535.295 320.822 534.349C321.158 533.391 321.625 532.601 322.222 531.979C322.732 531.444 323.336 531.045 324.033 530.784C324.729 530.51 325.551 530.373 326.497 530.373C327.243 530.373 327.859 530.473 328.345 530.672C328.83 530.871 329.303 531.22 329.763 531.717L330.137 530.56H331.723V534.965H330.025C329.863 533.97 329.496 533.173 328.923 532.576C328.351 531.966 327.567 531.661 326.571 531.661C326.011 531.661 325.545 531.755 325.171 531.941C324.798 532.128 324.474 532.396 324.201 532.744C323.852 533.267 323.56 533.914 323.323 534.685C323.087 535.444 322.969 536.272 322.969 537.168C322.969 538.039 323.074 538.879 323.286 539.688C323.51 540.497 323.821 541.175 324.219 541.723C324.468 542.059 324.798 542.308 325.209 542.469C325.632 542.619 326.092 542.693 326.59 542.693ZM334.48 541.797C334.48 540.764 334.953 539.968 335.899 539.408C336.845 538.836 338.332 538.394 340.36 538.083C340.311 537.46 340.242 536.981 340.155 536.645C340.068 536.309 339.956 536.023 339.819 535.787C339.657 535.5 339.458 535.27 339.222 535.096C338.985 534.922 338.687 534.835 338.326 534.835C338.064 534.835 337.822 534.884 337.598 534.984C337.386 535.084 337.243 535.22 337.168 535.395C337.343 535.482 337.461 535.619 337.523 535.805C337.598 535.992 337.635 536.154 337.635 536.291C337.635 536.602 337.498 536.882 337.224 537.131C336.951 537.367 336.621 537.485 336.235 537.485C335.849 537.485 335.544 537.361 335.32 537.112C335.096 536.851 334.984 536.527 334.984 536.141C334.984 535.631 335.165 535.196 335.526 534.835C335.887 534.474 336.347 534.2 336.907 534.013C337.467 533.827 338.033 533.733 338.606 533.733C339.191 533.733 339.713 533.82 340.174 533.995C340.647 534.156 341.026 534.362 341.312 534.611C342.296 535.482 342.787 536.863 342.787 538.755V541.181C342.787 541.791 342.824 542.214 342.899 542.451C342.986 542.687 343.167 542.805 343.44 542.805H344.28V543.645C343.136 544.006 342.271 544.187 341.686 544.187C341.275 544.187 341.001 544.05 340.864 543.776C340.728 543.502 340.659 542.961 340.659 542.152H340.584C340.199 542.787 339.688 543.284 339.054 543.645C338.419 544.006 337.735 544.187 337 544.187C336.216 544.187 335.6 543.975 335.152 543.552C334.704 543.129 334.48 542.544 334.48 541.797ZM338.139 542.824C338.4 542.824 338.687 542.737 338.998 542.563C339.321 542.388 339.601 542.146 339.838 541.835C339.975 541.66 340.105 541.412 340.23 541.088C340.354 540.764 340.416 540.379 340.416 539.931C340.416 539.781 340.41 539.613 340.398 539.427C340.385 539.24 340.367 539.066 340.342 538.904C339.483 539.091 338.805 539.29 338.307 539.501C337.822 539.713 337.473 539.968 337.262 540.267C337.063 540.553 336.963 540.908 336.963 541.331C336.963 541.866 337.088 542.252 337.336 542.488C337.585 542.712 337.853 542.824 338.139 542.824ZM346.294 542.6V535.32L344.857 534.965V533.92H348.105L348.516 535.787H348.59C348.964 535.152 349.468 534.654 350.102 534.293C350.737 533.92 351.415 533.733 352.137 533.733C353.17 533.733 353.935 534.069 354.433 534.741C354.682 535.09 354.856 535.581 354.956 536.216C355.068 536.838 355.124 537.684 355.124 538.755V542.6L356.561 542.955V544H351.502V542.955L352.753 542.6V538.997C352.753 538.251 352.728 537.672 352.678 537.261C352.641 536.838 352.566 536.502 352.454 536.253C352.317 535.93 352.131 535.706 351.894 535.581C351.658 535.457 351.378 535.395 351.054 535.395C350.445 535.395 349.928 535.594 349.505 535.992C348.995 536.465 348.715 537.193 348.665 538.176V542.6L349.916 542.955V544H344.857V542.955L346.294 542.6ZM358.986 542.6V535.32L357.548 534.965V533.92H360.796L361.207 535.787H361.282C361.655 535.152 362.159 534.654 362.794 534.293C363.428 533.92 364.107 533.733 364.828 533.733C365.861 533.733 366.627 534.069 367.124 534.741C367.373 535.09 367.547 535.581 367.647 536.216C367.759 536.838 367.815 537.684 367.815 538.755V542.6L369.252 542.955V544H364.194V542.955L365.444 542.6V538.997C365.444 538.251 365.419 537.672 365.37 537.261C365.332 536.838 365.258 536.502 365.146 536.253C365.009 535.93 364.822 535.706 364.586 535.581C364.349 535.457 364.069 535.395 363.746 535.395C363.136 535.395 362.619 535.594 362.196 535.992C361.686 536.465 361.406 537.193 361.356 538.176V542.6L362.607 542.955V544H357.548V542.955L358.986 542.6ZM371.677 535.32L370.24 534.965V533.92H374.048V542.6L375.485 542.955V544H370.24V542.955L371.677 542.6V535.32ZM371.472 531.083C371.472 530.684 371.59 530.361 371.826 530.112C372.075 529.863 372.417 529.739 372.853 529.739C373.288 529.739 373.631 529.863 373.88 530.112C374.128 530.361 374.253 530.684 374.253 531.083C374.253 531.468 374.128 531.786 373.88 532.035C373.643 532.284 373.301 532.408 372.853 532.408C372.405 532.408 372.063 532.29 371.826 532.053C371.59 531.804 371.472 531.481 371.472 531.083ZM380.49 543.048C381.112 543.048 381.641 542.93 382.076 542.693C382.524 542.457 382.748 542.127 382.748 541.704C382.748 541.368 382.612 541.088 382.338 540.864C382.076 540.64 381.74 540.453 381.33 540.304C380.932 540.155 380.521 540.018 380.098 539.893C379.588 539.732 379.096 539.526 378.623 539.277C378.15 539.028 377.764 538.699 377.466 538.288C377.167 537.865 377.018 537.336 377.018 536.701C377.018 535.805 377.341 535.09 377.988 534.555C378.648 534.007 379.575 533.733 380.77 533.733C381.915 533.733 382.823 533.976 383.495 534.461C384.18 534.934 384.522 535.55 384.522 536.309C384.522 536.732 384.404 537.062 384.167 537.299C383.943 537.523 383.632 537.635 383.234 537.635C382.836 537.635 382.524 537.541 382.3 537.355C382.076 537.156 381.964 536.925 381.964 536.664C381.964 536.452 382.027 536.247 382.151 536.048C382.276 535.849 382.437 535.706 382.636 535.619C382.475 535.382 382.244 535.202 381.946 535.077C381.647 534.94 381.28 534.872 380.844 534.872C380.272 534.872 379.836 534.996 379.538 535.245C379.252 535.482 379.108 535.818 379.108 536.253C379.108 536.577 379.183 536.851 379.332 537.075C379.482 537.286 379.687 537.46 379.948 537.597C380.222 537.734 380.54 537.859 380.9 537.971C381.398 538.12 381.884 538.276 382.356 538.437C382.842 538.599 383.277 538.798 383.663 539.035C384.049 539.271 384.354 539.564 384.578 539.912C384.814 540.248 384.932 540.659 384.932 541.144C384.932 541.791 384.733 542.345 384.335 542.805C383.937 543.253 383.396 543.596 382.711 543.832C382.039 544.068 381.28 544.187 380.434 544.187C379.252 544.187 378.324 543.969 377.652 543.533C376.98 543.085 376.644 542.494 376.644 541.76C376.644 541.25 376.788 540.852 377.074 540.565C377.36 540.279 377.702 540.136 378.1 540.136C378.399 540.136 378.673 540.223 378.922 540.397C379.183 540.559 379.314 540.796 379.314 541.107C379.314 541.331 379.245 541.548 379.108 541.76C378.972 541.972 378.816 542.127 378.642 542.227C378.766 542.426 378.972 542.612 379.258 542.787C379.544 542.961 379.955 543.048 380.49 543.048ZM279.159 555.32L277.722 554.965V553.92H281.53V562.6L282.967 562.955V564H277.722V562.955L279.159 562.6V555.32ZM278.954 551.083C278.954 550.684 279.072 550.361 279.309 550.112C279.557 549.863 279.9 549.739 280.335 549.739C280.771 549.739 281.113 549.863 281.362 550.112C281.611 550.361 281.735 550.684 281.735 551.083C281.735 551.468 281.611 551.786 281.362 552.035C281.125 552.284 280.783 552.408 280.335 552.408C279.887 552.408 279.545 552.29 279.309 552.053C279.072 551.804 278.954 551.481 278.954 551.083ZM285.452 562.6V555.32L284.015 554.965V553.92H287.263L287.673 555.787H287.748C288.121 555.152 288.625 554.654 289.26 554.293C289.895 553.92 290.573 553.733 291.295 553.733C292.328 553.733 293.093 554.069 293.591 554.741C293.84 555.09 294.014 555.581 294.113 556.216C294.225 556.838 294.281 557.684 294.281 558.755V562.6L295.719 562.955V564H290.66V562.955L291.911 562.6V558.997C291.911 558.251 291.886 557.672 291.836 557.261C291.799 556.838 291.724 556.502 291.612 556.253C291.475 555.93 291.288 555.706 291.052 555.581C290.816 555.457 290.536 555.395 290.212 555.395C289.602 555.395 289.086 555.594 288.663 555.992C288.152 556.465 287.872 557.193 287.823 558.176V562.6L289.073 562.955V564H284.015V562.955L285.452 562.6ZM302.985 562.525V552.035L301.417 551.643V550.56H305.729L311.964 560.416V552.035L310.396 551.643V550.56H315.305V551.643L313.737 552.035V564H311.665L304.759 553.285V562.525L306.327 562.917V564H301.417V562.917L302.985 562.525ZM325.346 559.221H318.831C318.831 560.068 318.956 560.771 319.204 561.331C319.404 561.754 319.671 562.084 320.007 562.32C320.343 562.544 320.76 562.656 321.258 562.656C321.805 562.656 322.347 562.532 322.882 562.283C323.429 562.034 323.896 561.66 324.282 561.163L325.29 561.947C324.854 562.569 324.263 563.098 323.516 563.533C322.782 563.969 321.874 564.187 320.791 564.187C319.883 564.187 319.099 564.006 318.439 563.645C317.78 563.272 317.276 562.731 316.927 562.021C316.74 561.636 316.604 561.206 316.516 560.733C316.429 560.26 316.386 559.75 316.386 559.203C316.386 557.46 316.784 556.116 317.58 555.171C318.389 554.212 319.528 553.733 320.996 553.733C322.353 553.733 323.423 554.132 324.207 554.928C325.004 555.712 325.402 556.801 325.402 558.195C325.402 558.332 325.396 558.468 325.383 558.605C325.383 558.73 325.371 558.935 325.346 559.221ZM320.959 555.021C319.677 555.021 318.974 556.023 318.85 558.027H322.956V557.541C322.956 556.732 322.776 556.11 322.415 555.675C322.067 555.239 321.581 555.021 320.959 555.021ZM329.601 555.339L331.187 561.2L331.374 562.301H331.467L331.673 561.2L333.614 553.733H335.518L337.515 561.181L337.702 562.283H337.777L338.001 561.181L339.513 555.339L338.299 554.984V553.939H342.406V554.984L341.398 555.339L338.71 564.187H336.227L334.286 557.448L332.401 564.187H329.918L327.137 555.339L326.147 554.984V553.939H330.889V554.984L329.601 555.339ZM348.709 557.224L351.546 552.035L350.034 551.643V550.56H354.831V551.643L353.301 552.035L349.642 558.736V562.525L351.397 562.917V564H345.461V562.917L347.215 562.525V559.035L343.351 552.035L341.802 551.643V550.56H347.514V551.643L345.946 552.035L348.709 557.224ZM363.801 558.96C363.801 559.756 363.683 560.509 363.447 561.219C363.223 561.916 362.893 562.5 362.457 562.973C362.047 563.409 361.549 563.72 360.964 563.907C360.392 564.093 359.72 564.187 358.948 564.187C358.176 564.187 357.498 564.093 356.913 563.907C356.341 563.72 355.849 563.409 355.439 562.973C355.003 562.5 354.667 561.916 354.431 561.219C354.207 560.509 354.095 559.756 354.095 558.96C354.095 558.164 354.207 557.411 354.431 556.701C354.667 555.992 355.003 555.407 355.439 554.947C355.849 554.511 356.341 554.2 356.913 554.013C357.498 553.827 358.176 553.733 358.948 553.733C359.72 553.733 360.392 553.827 360.964 554.013C361.549 554.2 362.047 554.511 362.457 554.947C362.893 555.407 363.223 555.992 363.447 556.701C363.683 557.411 363.801 558.164 363.801 558.96ZM357.249 562.189C357.424 562.438 357.648 562.625 357.921 562.749C358.208 562.874 358.55 562.936 358.948 562.936C359.346 562.936 359.688 562.874 359.975 562.749C360.261 562.625 360.485 562.438 360.647 562.189C361.045 561.58 361.244 560.503 361.244 558.96C361.244 558.176 361.194 557.516 361.095 556.981C360.995 556.446 360.846 556.029 360.647 555.731C360.485 555.482 360.261 555.295 359.975 555.171C359.688 555.046 359.346 554.984 358.948 554.984C358.55 554.984 358.208 555.046 357.921 555.171C357.648 555.295 357.424 555.482 357.249 555.731C356.851 556.34 356.652 557.417 356.652 558.96C356.652 560.503 356.851 561.58 357.249 562.189ZM370.76 555.283C370.624 555.283 370.468 555.37 370.294 555.544C370.12 555.706 369.958 555.899 369.808 556.123C369.672 556.347 369.572 556.546 369.51 556.72C369.36 557.143 369.23 557.579 369.118 558.027C369.006 558.475 368.95 559.022 368.95 559.669V562.6L370.966 562.955V564H365.142V562.955L366.579 562.6V555.04L365.142 554.685V553.92H368.39L368.8 556.384H368.875C369.161 555.538 369.547 554.884 370.032 554.424C370.518 553.964 371.053 553.733 371.638 553.733C372.123 553.733 372.528 553.889 372.851 554.2C373.175 554.499 373.336 554.903 373.336 555.413C373.336 555.787 373.224 556.129 373 556.44C372.776 556.739 372.459 556.888 372.048 556.888C371.551 556.888 371.196 556.776 370.984 556.552C370.773 556.316 370.667 556.06 370.667 555.787C370.667 555.7 370.667 555.637 370.667 555.6C370.68 555.55 370.711 555.444 370.76 555.283ZM380.052 562.955L381.154 562.6L378.69 559.315L377.644 560.192V562.6L379.082 562.955V564H373.836V562.955L375.274 562.6V550.84L373.836 550.485V549.44H377.644V558.736L380.818 555.301L379.847 554.965V553.92H384.42V554.965L382.778 555.32L380.22 557.933L383.711 562.637L384.7 562.955V564H380.052V562.955Z" fill="#970023"/>
<defs>
<clipPath id="clip0_342_1345">
<rect width="106" height="42.3726" fill="white" transform="translate(24 528)"/>
</clipPath>
</defs>
</svg>
