<?xml version="1.0" encoding="UTF-8" standalone="no"?>
<!DOCTYPE svg PUBLIC "-//W3C//DTD SVG 1.1//EN" "http://www.w3.org/Graphics/SVG/1.1/DTD/svg11.dtd">
<svg width="100%" height="100%" viewBox="0 0 229 119" version="1.1" xmlns="http://www.w3.org/2000/svg" xmlns:xlink="http://www.w3.org/1999/xlink" xml:space="preserve" xmlns:serif="http://www.serif.com/" style="fill-rule:evenodd;clip-rule:evenodd;stroke-linejoin:round;stroke-miterlimit:2;">
    <g id="Page-1" serif:id="Page 1" transform="matrix(4.166667,0,0,4.166667,0,0)">
        <rect x="0" y="0" width="54.752" height="28.346" style="fill:none;"/>
        <clipPath id="_clip1">
            <rect x="0" y="0" width="54.752" height="28.346"/>
        </clipPath>
        <g clip-path="url(#_clip1)">
            <g id="Layer-1" serif:id="Layer 1">
                <g transform="matrix(1,0,0,1,46.9561,8.0311)">
                    <path d="M0,12.285L-10.224,12.285L-10.224,-1.143L-5.351,-1.143L-5.351,8.159L0,8.159L0,12.285ZM-12.23,8.115L-13.381,8.688L-13.258,9.968C-13.202,10.564 -13.691,11.07 -14.289,11.033L-15.572,10.954L-16.106,12.123C-16.355,12.668 -17.032,12.862 -17.531,12.531L-18.603,11.821L-19.649,12.567C-20.137,12.914 -20.821,12.743 -21.088,12.207L-21.661,11.057L-22.94,11.179C-23.536,11.236 -24.042,10.746 -24.006,10.148L-23.927,8.865L-25.096,8.332C-25.641,8.083 -25.834,7.406 -25.503,6.906L-24.794,5.835L-25.539,4.788C-25.886,4.3 -25.715,3.617 -25.179,3.35L-24.029,2.777L-24.151,1.497C-24.208,0.901 -23.719,0.395 -23.121,0.432L-21.838,0.511L-21.304,-0.658C-21.055,-1.203 -20.378,-1.397 -19.878,-1.066L-18.807,-0.356L-17.76,-1.102C-17.272,-1.449 -16.589,-1.278 -16.322,-0.742L-15.749,0.409L-14.47,0.286C-13.873,0.229 -13.367,0.719 -13.404,1.317L-13.483,2.6L-12.314,3.133C-11.769,3.382 -11.575,4.059 -11.906,4.559L-12.616,5.63L-11.871,6.677C-11.523,7.165 -11.694,7.848 -12.23,8.115M-32.961,12.923C-36.962,12.923 -38.739,12.007 -39.522,11.268L-38.215,7.824C-38.215,7.824 -34.044,10.338 -31.943,7.08C-31.969,7.101 -32.822,7.782 -34.73,7.782C-36.669,7.782 -38.215,6.341 -38.215,4.133L-38.215,-0.639L-33.888,-0.639L-33.888,3.374C-33.888,4.154 -33.256,4.786 -32.477,4.786C-31.696,4.786 -31.064,4.154 -31.064,3.374L-31.064,-0.639L-26.766,-0.639L-26.766,6.391C-26.766,6.391 -26.26,12.923 -32.961,12.923M-2.536,-6.762C-3.154,-6.893 -3.766,-7.05 -4.376,-7.215C-8.419,-8.303 -30.742,-8.303 -34.784,-7.215C-35.394,-7.05 -36.006,-6.893 -36.624,-6.762C-42.53,-5.507 -46.956,-0.163 -46.956,6.142C-46.956,12.447 -42.53,17.791 -36.624,19.046C-36.006,19.177 -35.394,19.335 -34.784,19.499C-30.742,20.588 -8.419,20.588 -4.376,19.499C-3.766,19.335 -3.154,19.177 -2.536,19.046C3.369,17.791 7.796,12.447 7.796,6.142C7.796,-0.163 3.369,-5.507 -2.536,-6.762" style="fill:rgb(3,4,4);fill-rule:nonzero;"/>
                </g>
                <g transform="matrix(1,0,0,1,25.3425,14.1902)">
                    <path d="M0,-2.416C-0.108,-2.443 -0.22,-2.435 -0.329,-2.397C-0.373,-2.382 -0.413,-2.343 -0.455,-2.319C-0.519,-2.282 -0.585,-2.256 -0.643,-2.201C-0.84,-2.018 -1.003,-1.738 -1.087,-1.404C-1.253,-0.737 -1.038,-0.109 -0.604,-0C-0.495,0.027 -0.384,0.019 -0.275,-0.019C-0.231,-0.034 -0.191,-0.073 -0.149,-0.098C-0.085,-0.134 -0.02,-0.161 0.039,-0.215C0.236,-0.398 0.399,-0.678 0.483,-1.012C0.649,-1.679 0.433,-2.308 0,-2.416" style="fill:rgb(3,4,4);fill-rule:nonzero;"/>
                </g>
                <g transform="matrix(1,0,0,1,28.2977,14.909)">
                    <path d="M0,-2.396C-0.189,-2.443 -0.386,-2.368 -0.564,-2.23C-0.794,-2.052 -0.993,-1.76 -1.086,-1.384C-1.253,-0.717 -1.038,-0.089 -0.604,0.02C-0.495,0.047 -0.384,0.039 -0.275,0.001C0.053,-0.112 0.358,-0.492 0.483,-0.992C0.649,-1.659 0.433,-2.288 0,-2.396" style="fill:rgb(3,4,4);fill-rule:nonzero;"/>
                </g>
            </g>
        </g>
    </g>
</svg>
